<svg width="100" height="100" viewBox="0 0 100 100" fill="none" xmlns="http://www.w3.org/2000/svg">
<circle cx="50" cy="50" r="50" fill="#954F25"/>
<path d="M43.75 68.75H56.25" stroke="white" stroke-width="3" stroke-linecap="round"/>
<path d="M50 68.75V60.4167" stroke="white" stroke-width="3" stroke-linecap="round"/>
<mask id="path-4-inside-1_20_49" fill="white">
<path d="M35.4166 43.6667C35.4166 42.7239 35.4166 42.2525 35.7095 41.9596C36.0024 41.6667 36.4738 41.6667 37.4166 41.6667H62.5833C63.5261 41.6667 63.9975 41.6667 64.2904 41.9596C64.5833 42.2525 64.5833 42.7239 64.5833 43.6667V48.4167C64.5833 54.0735 64.5833 56.902 62.8259 58.6593C61.0686 60.4167 58.2401 60.4167 52.5833 60.4167H47.4166C41.7598 60.4167 38.9313 60.4167 37.174 58.6593C35.4166 56.902 35.4166 54.0735 35.4166 48.4167V43.6667Z"/>
</mask>
<path d="M35.4166 43.6667C35.4166 42.7239 35.4166 42.2525 35.7095 41.9596C36.0024 41.6667 36.4738 41.6667 37.4166 41.6667H62.5833C63.5261 41.6667 63.9975 41.6667 64.2904 41.9596C64.5833 42.2525 64.5833 42.7239 64.5833 43.6667V48.4167C64.5833 54.0735 64.5833 56.902 62.8259 58.6593C61.0686 60.4167 58.2401 60.4167 52.5833 60.4167H47.4166C41.7598 60.4167 38.9313 60.4167 37.174 58.6593C35.4166 56.902 35.4166 54.0735 35.4166 48.4167V43.6667Z" stroke="white" stroke-width="6" stroke-linecap="round" mask="url(#path-4-inside-1_20_49)"/>
<path d="M48.5577 49.5879C48.3301 50.3845 48.7914 51.2147 49.5879 51.4423C50.3845 51.6699 51.2147 51.2086 51.4423 50.4121L48.5577 49.5879ZM53.8972 36.3599L55.3395 36.7719L53.8972 36.3599ZM55.0774 35.0524L55.6345 36.4451H55.6345L55.0774 35.0524ZM54.2511 35.4929L55.3646 36.498L55.3646 36.498L54.2511 35.4929ZM51.4423 50.4121L55.3395 36.7719L52.4549 35.9478L48.5577 49.5879L51.4423 50.4121ZM55.6345 36.4451L65.1404 32.6427L64.0262 29.8573L54.5204 33.6596L55.6345 36.4451ZM55.3395 36.7719C55.3736 36.6526 55.3987 36.5647 55.4215 36.4899C55.4441 36.4154 55.4581 36.3751 55.4665 36.3531C55.4743 36.3326 55.4708 36.3455 55.4538 36.3756C55.4347 36.4094 55.4051 36.4531 55.3646 36.498L53.1377 34.4878C52.6943 34.979 52.5467 35.6264 52.4549 35.9478L55.3395 36.7719ZM54.5204 33.6596C54.21 33.7838 53.5811 33.9966 53.1377 34.4878L55.3646 36.498C55.3241 36.5429 55.2836 36.5768 55.2519 36.5993C55.2237 36.6193 55.2113 36.6241 55.2309 36.6142C55.2519 36.6036 55.2905 36.5856 55.3623 36.5554C55.4344 36.5252 55.5193 36.4912 55.6345 36.4451L54.5204 33.6596Z" fill="white"/>
</svg>
