<svg width="139" height="25" viewBox="0 0 139 25" fill="none" xmlns="http://www.w3.org/2000/svg">
<path d="M29.3438 13.1406C30.2396 13.3906 31 13.6771 31.625 14C32.2604 14.3229 32.7917 14.6615 33.2188 15.0156C33.6562 15.3594 34 15.7135 34.25 16.0781C34.5 16.4427 34.6927 16.7917 34.8281 17.125C34.9635 17.4583 35.0469 17.7708 35.0781 18.0625C35.1198 18.3438 35.1406 18.5833 35.1406 18.7812C35.1406 19.5104 35 20.1615 34.7188 20.7344C34.4479 21.3073 34.0781 21.8125 33.6094 22.25C33.1406 22.6875 32.5938 23.0573 31.9688 23.3594C31.3542 23.6615 30.7083 23.9062 30.0312 24.0938C29.3542 24.2917 28.6615 24.4323 27.9531 24.5156C27.2448 24.6094 26.5729 24.6562 25.9375 24.6562C24.9062 24.6562 23.8385 24.5521 22.7344 24.3438C21.6406 24.1354 20.5312 23.7969 19.4062 23.3281C19.1562 23.224 19.0312 23.0417 19.0312 22.7812C19.0312 22.6042 19.0938 22.4635 19.2188 22.3594C19.3438 22.2448 19.4792 22.1875 19.625 22.1875C19.6979 22.1875 19.776 22.2031 19.8594 22.2344C20.8281 22.6406 21.8229 22.9479 22.8438 23.1562C23.8646 23.3646 24.8906 23.4688 25.9219 23.4688C27.3281 23.4688 28.5365 23.3333 29.5469 23.0625C30.5573 22.7917 31.3854 22.4375 32.0312 22C32.6875 21.5521 33.1719 21.0521 33.4844 20.5C33.7969 19.9375 33.9531 19.3698 33.9531 18.7969C33.9531 18.1615 33.776 17.5729 33.4219 17.0312C33.0781 16.4896 32.5833 16.0052 31.9375 15.5781C31.3021 15.151 30.5365 14.7865 29.6406 14.4844C28.7448 14.1823 27.75 13.9583 26.6562 13.8125C25.9375 13.9375 25.2396 14.026 24.5625 14.0781C23.8854 14.1302 23.2604 14.1562 22.6875 14.1562H22.3281C22.2552 14.1562 22.1875 14.151 22.125 14.1406C21.375 15.9427 20.4792 17.5 19.4375 18.8125C18.4062 20.125 17.3021 21.2135 16.125 22.0781C14.9583 22.9323 13.7552 23.5677 12.5156 23.9844C11.2865 24.3906 10.1042 24.5938 8.96875 24.5938C7.79167 24.5938 6.70833 24.4271 5.71875 24.0938C4.73958 23.7708 3.89583 23.3073 3.1875 22.7031C2.47917 22.099 1.92708 21.3698 1.53125 20.5156C1.13542 19.651 0.9375 18.6875 0.9375 17.625C0.9375 16.5208 1.15104 15.3802 1.57812 14.2031C2.01562 13.0156 2.66146 11.8125 3.51562 10.5938C4.32812 9.44792 5.22917 8.42188 6.21875 7.51562C7.20833 6.59896 8.24479 5.79688 9.32812 5.10938C10.4219 4.42188 11.5469 3.83333 12.7031 3.34375C13.8594 2.85417 15.0052 2.45312 16.1406 2.14062C17.2865 1.82812 18.401 1.60417 19.4844 1.46875C20.5781 1.32292 21.6042 1.25 22.5625 1.25C23.3438 1.25 24.0885 1.27604 24.7969 1.32812C25.5052 1.38021 26.1823 1.45833 26.8281 1.5625C27.2031 1.14583 27.5052 0.848958 27.7344 0.671875C27.9635 0.484375 28.0938 0.380208 28.125 0.359375C28.25 0.296875 28.3594 0.265625 28.4531 0.265625C28.599 0.265625 28.7292 0.307292 28.8438 0.390625C28.9583 0.473958 29.0156 0.59375 29.0156 0.75C29.0156 0.958333 28.9427 1.13542 28.7969 1.28125C28.651 1.41667 28.4531 1.60417 28.2031 1.84375C30.1094 2.3125 31.5677 3.02083 32.5781 3.96875C33.5885 4.90625 34.0938 6.06771 34.0938 7.45312C34.0938 8.21354 33.9688 8.89583 33.7188 9.5C33.4688 10.1042 33.125 10.6354 32.6875 11.0938C32.2604 11.5521 31.7552 11.9531 31.1719 12.2969C30.599 12.6302 29.9896 12.9115 29.3438 13.1406ZM26.6719 12.625C27.1302 12.5417 27.599 12.4323 28.0781 12.2969C28.5677 12.1615 29.0417 12 29.5 11.8125C29.9688 11.6146 30.4115 11.3854 30.8281 11.125C31.2448 10.8542 31.6042 10.5417 31.9062 10.1875C32.2188 9.82292 32.4635 9.41667 32.6406 8.96875C32.8281 8.52083 32.9219 8.01042 32.9219 7.4375C32.9219 6.27083 32.4375 5.30729 31.4688 4.54688C30.5 3.78646 29.1094 3.22396 27.2969 2.85938C26.776 3.50521 26.2865 4.21875 25.8281 5C25.3698 5.78125 24.9479 6.59375 24.5625 7.4375C24.1771 8.27083 23.8281 9.11979 23.5156 9.98438C23.2135 10.8385 22.9635 11.6667 22.7656 12.4688C22.974 12.4583 23.1667 12.4531 23.3438 12.4531C23.5208 12.4531 23.6719 12.4531 23.7969 12.4531C24.2031 12.4531 24.6458 12.4688 25.125 12.5C25.6042 12.5208 26.1198 12.5625 26.6719 12.625ZM25.9688 2.64062C25.4375 2.56771 24.8906 2.51562 24.3281 2.48438C23.7656 2.45312 23.1771 2.4375 22.5625 2.4375C21.6458 2.4375 20.6719 2.50521 19.6406 2.64062C18.6094 2.77604 17.5521 2.98958 16.4688 3.28125C15.3854 3.57292 14.2917 3.95312 13.1875 4.42188C12.0938 4.88021 11.026 5.4375 9.98438 6.09375C8.95312 6.73958 7.96875 7.49479 7.03125 8.35938C6.09375 9.22396 5.23958 10.1979 4.46875 11.2812C3.6875 12.3854 3.09896 13.474 2.70312 14.5469C2.30729 15.6198 2.10938 16.6406 2.10938 17.6094C2.10938 18.5156 2.27083 19.3281 2.59375 20.0469C2.92708 20.7656 3.39583 21.375 4 21.875C4.60417 22.3646 5.32812 22.7448 6.17188 23.0156C7.01562 23.276 7.94792 23.4062 8.96875 23.4062C9.98958 23.4062 11.0521 23.224 12.1562 22.8594C13.2604 22.4844 14.3385 21.9167 15.3906 21.1562C16.4427 20.3854 17.4427 19.4167 18.3906 18.25C19.3385 17.0729 20.1667 15.6771 20.875 14.0625C20.6875 14.0625 20.4948 14.0104 20.2969 13.9062C20.099 13.7917 20 13.6146 20 13.375C20 13.125 20.1198 12.9479 20.3594 12.8438C20.599 12.7292 20.974 12.6354 21.4844 12.5625C21.7656 11.7083 22.0521 10.8542 22.3438 10C22.6354 9.14583 22.9583 8.30208 23.3125 7.46875C23.6667 6.63542 24.0573 5.81771 24.4844 5.01562C24.9115 4.20312 25.4062 3.41146 25.9688 2.64062ZM43.6844 11.7344C43.6844 12.1302 43.5438 12.4688 43.2625 12.75C42.9917 13.0208 42.6583 13.1562 42.2625 13.1562C41.8667 13.1562 41.5281 13.0208 41.2469 12.75C40.976 12.4688 40.8406 12.1302 40.8406 11.7344C40.8406 11.5365 40.8771 11.3542 40.95 11.1875C41.0229 11.0104 41.1219 10.8594 41.2469 10.7344C41.3823 10.599 41.5333 10.4948 41.7 10.4219C41.8771 10.349 42.0646 10.3125 42.2625 10.3125C42.4604 10.3125 42.6427 10.349 42.8094 10.4219C42.9865 10.4948 43.1375 10.599 43.2625 10.7344C43.3979 10.8594 43.5021 11.0104 43.575 11.1875C43.6479 11.3542 43.6844 11.5365 43.6844 11.7344ZM41.1531 20.8906C41.1531 19.3906 41.2469 17.8958 41.4344 16.4062C41.4552 16.2604 41.5177 16.1354 41.6219 16.0312C41.7365 15.9167 41.8823 15.8594 42.0594 15.8594C42.2156 15.8594 42.3458 15.9219 42.45 16.0469C42.5542 16.1615 42.6063 16.2969 42.6063 16.4531C42.6063 16.5156 42.5906 16.7031 42.5594 17.0156C42.5385 17.3281 42.5073 17.7031 42.4656 18.1406C42.4344 18.5677 42.4031 19.026 42.3719 19.5156C42.351 19.9948 42.3406 20.4375 42.3406 20.8438C42.3406 21.3958 42.3927 21.8438 42.4969 22.1875C42.6115 22.5208 42.7521 22.7812 42.9188 22.9688C43.0958 23.1562 43.2781 23.2812 43.4656 23.3438C43.6635 23.4062 43.851 23.4375 44.0281 23.4375C44.3198 23.4375 44.6219 23.3333 44.9344 23.125C45.2469 22.9167 45.5646 22.625 45.8875 22.25C46.2208 21.875 46.5542 21.4271 46.8875 20.9062C47.2208 20.375 47.549 19.7865 47.8719 19.1406C47.924 19.0365 47.9969 18.9583 48.0906 18.9062C48.1844 18.8438 48.2885 18.8125 48.4031 18.8125C48.5698 18.8125 48.7052 18.875 48.8094 19C48.924 19.125 48.9813 19.2604 48.9813 19.4062C48.9813 19.5104 48.9604 19.599 48.9188 19.6719C48.7938 19.9115 48.6375 20.2031 48.45 20.5469C48.2625 20.8906 48.049 21.2448 47.8094 21.6094C47.5698 21.974 47.3042 22.3385 47.0125 22.7031C46.7313 23.0573 46.4292 23.3802 46.1063 23.6719C45.7833 23.9531 45.4448 24.1823 45.0906 24.3594C44.7365 24.5365 44.3771 24.625 44.0125 24.625C43.5438 24.625 43.1323 24.526 42.7781 24.3281C42.424 24.1302 42.1219 23.8646 41.8719 23.5312C41.6323 23.1979 41.45 22.8073 41.325 22.3594C41.2104 21.901 41.1531 21.4115 41.1531 20.8906ZM42.8094 11.7344C42.8094 11.5885 42.7521 11.4635 42.6375 11.3594C42.5333 11.2448 42.4083 11.1875 42.2625 11.1875C42.1167 11.1875 41.9917 11.2448 41.8875 11.3594C41.7833 11.4635 41.7313 11.5885 41.7313 11.7344C41.7313 11.8802 41.7833 12.0052 41.8875 12.1094C41.9917 12.2135 42.1167 12.2656 42.2625 12.2656C42.4083 12.2656 42.5333 12.2135 42.6375 12.1094C42.7521 12.0052 42.8094 11.8802 42.8094 11.7344ZM52.9313 22.2812C53.15 22.5833 53.4313 22.8281 53.775 23.0156C54.1188 23.1927 54.5406 23.2812 55.0406 23.2812C55.551 23.2812 56.0146 23.1615 56.4313 22.9219C56.8479 22.6719 57.2281 22.349 57.5719 21.9531C57.9156 21.5573 58.2229 21.1146 58.4938 20.625C58.7646 20.1354 59.0094 19.6458 59.2281 19.1562C59.2802 19.0417 59.3531 18.9583 59.4469 18.9062C59.5406 18.8438 59.6448 18.8125 59.7594 18.8125C59.9365 18.8125 60.0771 18.875 60.1813 19C60.2958 19.125 60.3531 19.2604 60.3531 19.4062C60.3531 19.4583 60.3479 19.5052 60.3375 19.5469C60.3271 19.5781 60.3115 19.6146 60.2906 19.6562C59.5719 21.2396 58.7854 22.4323 57.9313 23.2344C57.0875 24.0365 56.1292 24.4479 55.0563 24.4688C54.3688 24.4688 53.775 24.3333 53.275 24.0625C52.775 23.8021 52.3635 23.4635 52.0406 23.0469C51.7177 22.6198 51.4781 22.1406 51.3219 21.6094C51.1656 21.0781 51.0875 20.5469 51.0875 20.0156C51.0875 19.4844 51.15 18.9948 51.275 18.5469C51.4104 18.099 51.5979 17.7083 51.8375 17.375C52.0875 17.0417 52.3792 16.7812 52.7125 16.5938C53.0563 16.4062 53.4313 16.3125 53.8375 16.3125C54.0771 16.3125 54.3115 16.3646 54.5406 16.4688C54.7802 16.5625 54.9938 16.7031 55.1813 16.8906C55.3688 17.0677 55.5198 17.2865 55.6344 17.5469C55.749 17.8073 55.8063 18.1042 55.8063 18.4375C55.8063 18.8646 55.7333 19.2656 55.5875 19.6406C55.4417 20.0156 55.2385 20.3646 54.9781 20.6875C54.7281 21.0104 54.426 21.3073 54.0719 21.5781C53.7177 21.849 53.3375 22.0833 52.9313 22.2812ZM52.4625 21.2656C52.7854 21.1302 53.0771 20.9583 53.3375 20.75C53.6083 20.5417 53.8375 20.3125 54.025 20.0625C54.2125 19.8125 54.3583 19.5521 54.4625 19.2812C54.5667 19 54.6188 18.7188 54.6188 18.4375C54.6188 18.125 54.5406 17.8906 54.3844 17.7344C54.2281 17.5677 54.0458 17.4844 53.8375 17.4844C53.5563 17.4844 53.3167 17.5625 53.1188 17.7188C52.9208 17.875 52.7594 18.0781 52.6344 18.3281C52.5094 18.5781 52.4156 18.8594 52.3531 19.1719C52.301 19.474 52.275 19.776 52.275 20.0781C52.275 20.2656 52.2906 20.4635 52.3219 20.6719C52.3635 20.8802 52.4104 21.0781 52.4625 21.2656ZM65.9125 22.5938C66.0792 22.25 66.2719 21.875 66.4906 21.4688C66.7094 21.0521 66.9437 20.6354 67.1937 20.2188C67.4437 19.7917 67.7042 19.3698 67.975 18.9531C68.2562 18.5365 68.5479 18.1406 68.85 17.7656C69.1521 17.401 69.4542 17.1406 69.7562 16.9844C70.0687 16.8177 70.3604 16.7344 70.6312 16.7344C71.1729 16.7344 71.574 16.9323 71.8344 17.3281C72.0948 17.724 72.225 18.2135 72.225 18.7969C72.225 18.9323 72.2146 19.099 72.1937 19.2969C72.1833 19.4844 72.1677 19.6875 72.1469 19.9062C72.1365 20.125 72.1208 20.349 72.1 20.5781C72.0896 20.7969 72.0844 21.0052 72.0844 21.2031C72.0844 21.4531 72.0948 21.6927 72.1156 21.9219C72.1469 22.151 72.199 22.3542 72.2719 22.5312C72.3448 22.6979 72.449 22.8333 72.5844 22.9375C72.7198 23.0312 72.8969 23.0781 73.1156 23.0781C73.5115 23.0781 73.8969 22.9271 74.2719 22.625C74.6469 22.3125 74.9906 21.9479 75.3031 21.5312C75.626 21.1042 75.9021 20.6719 76.1312 20.2344C76.3708 19.7969 76.5479 19.4427 76.6625 19.1719C76.7146 19.0573 76.7875 18.9688 76.8812 18.9062C76.9854 18.8438 77.0948 18.8125 77.2094 18.8125C77.3865 18.8125 77.5271 18.8802 77.6312 19.0156C77.7458 19.1406 77.8031 19.276 77.8031 19.4219C77.8031 19.4948 77.7875 19.5677 77.7562 19.6406C77.7146 19.724 77.6312 19.8958 77.5062 20.1562C77.3812 20.4167 77.2146 20.7188 77.0062 21.0625C76.8083 21.3958 76.574 21.7552 76.3031 22.1406C76.0323 22.5156 75.7302 22.8594 75.3969 23.1719C75.074 23.4844 74.7198 23.7448 74.3344 23.9531C73.9594 24.1615 73.5635 24.2656 73.1469 24.2656C72.6781 24.2656 72.2979 24.1771 72.0062 24C71.7146 23.8125 71.4854 23.5729 71.3187 23.2812C71.1521 22.9792 71.0375 22.651 70.975 22.2969C70.9229 21.9323 70.8969 21.5677 70.8969 21.2031C70.8969 21.0469 70.9021 20.8698 70.9125 20.6719C70.9333 20.474 70.9542 20.2656 70.975 20.0469C71.0062 19.8281 71.0271 19.6094 71.0375 19.3906C71.0583 19.1719 71.0687 18.9635 71.0687 18.7656C71.0687 18.4323 71.0167 18.2083 70.9125 18.0938C70.8083 17.9688 70.7146 17.9062 70.6312 17.9062C70.4646 17.9062 70.2719 18.0052 70.0531 18.2031C69.8448 18.3906 69.6208 18.6406 69.3812 18.9531C69.1521 19.2656 68.9125 19.6198 68.6625 20.0156C68.4229 20.401 68.1937 20.7865 67.975 21.1719C67.7667 21.5573 67.5687 21.9271 67.3812 22.2812C67.2042 22.625 67.0635 22.9115 66.9594 23.1406C66.751 23.5781 66.5427 23.8698 66.3344 24.0156C66.126 24.1719 65.9125 24.25 65.6937 24.25C65.3917 24.25 65.1469 24.1615 64.9594 23.9844C64.7823 23.7969 64.6937 23.5365 64.6937 23.2031C64.6937 23.1302 64.7042 22.9896 64.725 22.7812C64.7458 22.5625 64.7719 22.3073 64.8031 22.0156C64.8344 21.7135 64.8656 21.3906 64.8969 21.0469C64.9281 20.7031 64.9594 20.3646 64.9906 20.0312C65.0219 19.6875 65.0479 19.3698 65.0687 19.0781C65.0896 18.7865 65.1 18.5417 65.1 18.3438C65.1 18.0833 65.0896 17.8333 65.0687 17.5938C65.0479 17.3542 65.0062 17.2083 64.9437 17.1562C64.85 17.1875 64.6833 17.3854 64.4437 17.75C64.2042 18.1042 63.8969 18.7344 63.5219 19.6406C63.4698 19.7552 63.3917 19.8438 63.2875 19.9062C63.1833 19.9688 63.074 20 62.9594 20C62.7823 20 62.6417 19.9427 62.5375 19.8281C62.4333 19.7031 62.3812 19.5625 62.3812 19.4062C62.3812 19.3333 62.3969 19.2552 62.4281 19.1719C62.8969 18.0573 63.3344 17.2396 63.7406 16.7188C64.1573 16.1875 64.5687 15.9219 64.975 15.9219C65.2146 15.9219 65.4177 15.9844 65.5844 16.1094C65.751 16.224 65.8812 16.3802 65.975 16.5781C66.0792 16.776 66.1521 16.9948 66.1937 17.2344C66.2458 17.474 66.2719 17.7188 66.2719 17.9688C66.2719 18.1562 66.2562 18.4479 66.225 18.8438C66.2042 19.2396 66.1729 19.6667 66.1312 20.125C66.0896 20.5729 66.0479 21.0208 66.0062 21.4688C65.975 21.9167 65.9437 22.2917 65.9125 22.5938ZM81.7688 22.2812C81.9875 22.5833 82.2688 22.8281 82.6125 23.0156C82.9563 23.1927 83.3781 23.2812 83.8781 23.2812C84.3885 23.2812 84.8521 23.1615 85.2688 22.9219C85.6854 22.6719 86.0656 22.349 86.4094 21.9531C86.7531 21.5573 87.0604 21.1146 87.3313 20.625C87.6021 20.1354 87.8469 19.6458 88.0656 19.1562C88.1177 19.0417 88.1906 18.9583 88.2844 18.9062C88.3781 18.8438 88.4823 18.8125 88.5969 18.8125C88.774 18.8125 88.9146 18.875 89.0188 19C89.1333 19.125 89.1906 19.2604 89.1906 19.4062C89.1906 19.4583 89.1854 19.5052 89.175 19.5469C89.1646 19.5781 89.149 19.6146 89.1281 19.6562C88.4094 21.2396 87.6229 22.4323 86.7688 23.2344C85.925 24.0365 84.9667 24.4479 83.8938 24.4688C83.2063 24.4688 82.6125 24.3333 82.1125 24.0625C81.6125 23.8021 81.201 23.4635 80.8781 23.0469C80.5552 22.6198 80.3156 22.1406 80.1594 21.6094C80.0031 21.0781 79.925 20.5469 79.925 20.0156C79.925 19.4844 79.9875 18.9948 80.1125 18.5469C80.2479 18.099 80.4354 17.7083 80.675 17.375C80.925 17.0417 81.2167 16.7812 81.55 16.5938C81.8938 16.4062 82.2688 16.3125 82.675 16.3125C82.9146 16.3125 83.149 16.3646 83.3781 16.4688C83.6177 16.5625 83.8313 16.7031 84.0188 16.8906C84.2063 17.0677 84.3573 17.2865 84.4719 17.5469C84.5865 17.8073 84.6438 18.1042 84.6438 18.4375C84.6438 18.8646 84.5708 19.2656 84.425 19.6406C84.2792 20.0156 84.076 20.3646 83.8156 20.6875C83.5656 21.0104 83.2635 21.3073 82.9094 21.5781C82.5552 21.849 82.175 22.0833 81.7688 22.2812ZM81.3 21.2656C81.6229 21.1302 81.9146 20.9583 82.175 20.75C82.4458 20.5417 82.675 20.3125 82.8625 20.0625C83.05 19.8125 83.1958 19.5521 83.3 19.2812C83.4042 19 83.4563 18.7188 83.4563 18.4375C83.4563 18.125 83.3781 17.8906 83.2219 17.7344C83.0656 17.5677 82.8833 17.4844 82.675 17.4844C82.3938 17.4844 82.1542 17.5625 81.9563 17.7188C81.7583 17.875 81.5969 18.0781 81.4719 18.3281C81.3469 18.5781 81.2531 18.8594 81.1906 19.1719C81.1385 19.474 81.1125 19.776 81.1125 20.0781C81.1125 20.2656 81.1281 20.4635 81.1594 20.6719C81.201 20.8802 81.2479 21.0781 81.3 21.2656ZM93.0156 18.2188C92.9531 18.3854 92.875 18.5729 92.7812 18.7812C92.6979 18.9896 92.599 19.2083 92.4844 19.4375C92.3906 19.6146 92.2917 19.7552 92.1875 19.8594C92.0938 19.9531 91.9688 20 91.8125 20C91.6354 20 91.4948 19.9479 91.3906 19.8438C91.2865 19.7292 91.2344 19.599 91.2344 19.4531C91.2344 19.401 91.2396 19.3594 91.25 19.3281C91.2604 19.2865 91.2865 19.224 91.3281 19.1406C91.599 18.6198 91.7969 18.1667 91.9219 17.7812C92.0573 17.3854 92.1667 16.974 92.25 16.5469C92.1771 16.3073 92.125 16.1042 92.0938 15.9375C92.0625 15.7708 92.0469 15.599 92.0469 15.4219C92.0469 15.0781 92.1198 14.8021 92.2656 14.5938C92.4115 14.375 92.6146 14.2656 92.875 14.2656C93.1146 14.2656 93.3021 14.3698 93.4375 14.5781C93.5833 14.7865 93.6562 15.0417 93.6562 15.3438C93.6562 15.5104 93.6406 15.6771 93.6094 15.8438C93.5781 16.0104 93.5365 16.2188 93.4844 16.4688C93.724 17.0625 93.9635 17.5885 94.2031 18.0469C94.4427 18.5052 94.6562 18.9271 94.8438 19.3125C95.0312 19.6875 95.1823 20.0417 95.2969 20.375C95.4219 20.7083 95.4844 21.0417 95.4844 21.375C95.4844 21.8125 95.3958 22.2292 95.2188 22.625C95.0417 23.0208 94.75 23.3542 94.3438 23.625C94.3958 23.6354 94.4479 23.6406 94.5 23.6406C94.5521 23.6406 94.6042 23.6406 94.6562 23.6406C95.25 23.6406 95.7969 23.5052 96.2969 23.2344C96.7969 22.9635 97.2448 22.6146 97.6406 22.1875C98.0469 21.75 98.4062 21.2708 98.7188 20.75C99.0312 20.2188 99.3021 19.6927 99.5312 19.1719C99.6354 18.9323 99.7812 18.8125 99.9688 18.8125C100.146 18.8125 100.281 18.875 100.375 19C100.479 19.125 100.531 19.2604 100.531 19.4062C100.531 19.4896 100.516 19.5677 100.484 19.6406C100.37 19.9219 100.219 20.2448 100.031 20.6094C99.8542 20.9635 99.6354 21.3333 99.375 21.7188C99.125 22.0938 98.8333 22.4635 98.5 22.8281C98.1667 23.1927 97.7917 23.5208 97.375 23.8125C96.9688 24.0938 96.5208 24.3177 96.0312 24.4844C95.5417 24.6615 95.0052 24.75 94.4219 24.75C93.724 24.75 93.0729 24.625 92.4688 24.375C91.875 24.1354 91.3906 23.7344 91.0156 23.1719C90.9531 23.0781 90.9219 22.9792 90.9219 22.875C90.9219 22.7188 90.9792 22.5833 91.0938 22.4688C91.2188 22.3438 91.3594 22.2812 91.5156 22.2812C91.6823 22.2812 91.8229 22.3385 91.9375 22.4531C91.9479 22.474 91.9844 22.5104 92.0469 22.5625C92.1094 22.6042 92.1823 22.6562 92.2656 22.7188C92.3594 22.7708 92.4635 22.8177 92.5781 22.8594C92.7031 22.901 92.8281 22.9219 92.9531 22.9219C93.2031 22.9219 93.4115 22.8698 93.5781 22.7656C93.7552 22.6615 93.8958 22.5365 94 22.3906C94.1042 22.2344 94.1771 22.0729 94.2188 21.9062C94.2708 21.7292 94.2969 21.5781 94.2969 21.4531C94.2969 21.1927 94.2552 20.9323 94.1719 20.6719C94.0885 20.4115 93.9792 20.151 93.8438 19.8906C93.7188 19.6302 93.5781 19.3646 93.4219 19.0938C93.276 18.8125 93.1406 18.5208 93.0156 18.2188ZM115.262 8.35938C115.262 8.52604 115.205 8.66146 115.091 8.76562C114.976 8.85938 114.835 8.90625 114.669 8.90625H106.747V9.07812C106.747 9.71354 106.7 10.3906 106.606 11.1094C106.512 11.8281 106.382 12.5469 106.216 13.2656C106.059 13.974 105.877 14.6667 105.669 15.3438C105.471 16.0208 105.262 16.6458 105.044 17.2188C104.835 17.7917 104.627 18.2917 104.419 18.7188C104.21 19.1354 104.023 19.4479 103.856 19.6562C103.992 20.1354 104.153 20.5833 104.341 21C104.528 21.4062 104.736 21.7656 104.966 22.0781C105.205 22.3802 105.46 22.6198 105.731 22.7969C106.002 22.974 106.294 23.0625 106.606 23.0625C106.971 23.0625 107.33 22.9115 107.684 22.6094C108.049 22.2969 108.382 21.9323 108.684 21.5156C108.997 21.0885 109.268 20.6615 109.497 20.2344C109.736 19.7969 109.908 19.4479 110.012 19.1875C110.117 18.9375 110.299 18.8125 110.559 18.8125C110.736 18.8125 110.877 18.875 110.981 19C111.096 19.125 111.153 19.2604 111.153 19.4062C111.153 19.4792 111.137 19.5521 111.106 19.625C111.075 19.6979 110.997 19.8646 110.872 20.125C110.757 20.3854 110.601 20.6875 110.403 21.0312C110.216 21.375 109.992 21.7396 109.731 22.125C109.481 22.5 109.195 22.8438 108.872 23.1562C108.559 23.4688 108.221 23.7292 107.856 23.9375C107.492 24.1458 107.106 24.25 106.7 24.25C105.981 24.25 105.335 24.0156 104.762 23.5469C104.19 23.0781 103.7 22.4219 103.294 21.5781C102.898 20.7344 102.596 19.7344 102.387 18.5781C102.179 17.4219 102.075 16.1562 102.075 14.7812C102.075 14.4375 102.08 14.0365 102.091 13.5781C102.101 13.1094 102.122 12.6198 102.153 12.1094C102.184 11.5885 102.231 11.0573 102.294 10.5156C102.356 9.96354 102.44 9.42708 102.544 8.90625H96.9344C96.7677 8.90625 96.6271 8.85938 96.5125 8.76562C96.3979 8.66146 96.3406 8.52604 96.3406 8.35938C96.3406 8.19271 96.3979 8.0625 96.5125 7.96875C96.6271 7.86458 96.7677 7.8125 96.9344 7.8125H102.809C102.914 7.4375 103.033 7.09375 103.169 6.78125C103.315 6.46875 103.476 6.19792 103.653 5.96875C103.841 5.73958 104.044 5.5625 104.262 5.4375C104.492 5.30208 104.742 5.23438 105.012 5.23438C105.273 5.23438 105.497 5.30208 105.684 5.4375C105.882 5.5625 106.049 5.73958 106.184 5.96875C106.32 6.19792 106.424 6.46875 106.497 6.78125C106.58 7.09375 106.643 7.4375 106.684 7.8125H114.669C114.835 7.8125 114.976 7.86458 115.091 7.96875C115.205 8.0625 115.262 8.19271 115.262 8.35938ZM103.497 18.0938C103.809 17.4062 104.091 16.6667 104.341 15.875C104.601 15.0729 104.82 14.2656 104.997 13.4531C105.184 12.6406 105.325 11.8438 105.419 11.0625C105.523 10.2812 105.575 9.5625 105.575 8.90625H103.731C103.585 9.55208 103.466 10.3542 103.372 11.3125C103.289 12.2604 103.247 13.4167 103.247 14.7812C103.247 15.5417 103.268 16.1823 103.309 16.7031C103.351 17.2135 103.414 17.6771 103.497 18.0938ZM104.95 6.40625C104.856 6.40625 104.721 6.51042 104.544 6.71875C104.367 6.91667 104.19 7.28125 104.012 7.8125H105.512C105.46 7.375 105.382 7.03125 105.278 6.78125C105.184 6.53125 105.075 6.40625 104.95 6.40625ZM103.747 19.2188V19.2344V19.2188ZM125.353 19.6406C125.311 19.724 125.223 19.901 125.088 20.1719C124.963 20.4323 124.796 20.7344 124.588 21.0781C124.39 21.4219 124.155 21.7812 123.884 22.1562C123.614 22.5312 123.311 22.875 122.978 23.1875C122.645 23.5 122.285 23.7604 121.9 23.9688C121.515 24.1667 121.108 24.2656 120.681 24.2656C120.077 24.2656 119.567 24.0729 119.15 23.6875C118.744 23.3021 118.447 22.8177 118.259 22.2344C117.905 22.8281 117.483 23.3021 116.994 23.6562C116.504 24 116.015 24.1719 115.525 24.1719C115.14 24.1719 114.791 24.1042 114.478 23.9688C114.166 23.8229 113.9 23.625 113.681 23.375C113.463 23.1146 113.291 22.8125 113.166 22.4688C113.051 22.125 112.994 21.75 112.994 21.3438C112.994 20.5312 113.129 19.8177 113.4 19.2031C113.681 18.5781 114.035 18.0573 114.463 17.6406C114.89 17.224 115.358 16.9115 115.869 16.7031C116.39 16.4948 116.89 16.3906 117.369 16.3906C117.692 16.3906 117.989 16.4375 118.259 16.5312C118.53 16.6146 118.759 16.7083 118.947 16.8125C119.145 16.9167 119.296 17.0156 119.4 17.1094C119.504 17.1927 119.561 17.2396 119.572 17.25C119.686 17.3854 119.744 17.526 119.744 17.6719C119.744 17.8281 119.686 17.9688 119.572 18.0938C119.457 18.2083 119.322 18.2656 119.166 18.2656C118.999 18.2656 118.858 18.2083 118.744 18.0938C118.723 18.0729 118.676 18.0365 118.603 17.9844C118.53 17.9219 118.431 17.8594 118.306 17.7969C118.181 17.7344 118.03 17.6823 117.853 17.6406C117.686 17.5885 117.494 17.5625 117.275 17.5625C116.952 17.5625 116.608 17.6354 116.244 17.7812C115.879 17.9271 115.546 18.1562 115.244 18.4688C114.942 18.7708 114.686 19.1562 114.478 19.625C114.28 20.0833 114.181 20.6302 114.181 21.2656C114.181 21.4635 114.202 21.6667 114.244 21.875C114.285 22.0729 114.358 22.2552 114.463 22.4219C114.567 22.5885 114.707 22.724 114.884 22.8281C115.061 22.9323 115.28 22.9844 115.541 22.9844C115.728 22.9844 115.942 22.9219 116.181 22.7969C116.431 22.6719 116.666 22.4792 116.884 22.2188C117.114 21.9583 117.317 21.6302 117.494 21.2344C117.681 20.8385 117.811 20.3698 117.884 19.8281C117.905 19.6823 117.973 19.5625 118.088 19.4688C118.202 19.3646 118.338 19.3125 118.494 19.3125C118.64 19.3125 118.765 19.3698 118.869 19.4844C118.983 19.599 119.046 19.7292 119.056 19.875C119.067 20.0729 119.088 20.3542 119.119 20.7188C119.15 21.0729 119.218 21.4271 119.322 21.7812C119.436 22.1354 119.603 22.4427 119.822 22.7031C120.041 22.9635 120.343 23.0938 120.728 23.0938C120.978 23.0938 121.223 23.026 121.463 22.8906C121.713 22.7552 121.952 22.5781 122.181 22.3594C122.421 22.1302 122.645 21.875 122.853 21.5938C123.072 21.3021 123.27 21.0104 123.447 20.7188C123.624 20.4271 123.78 20.1458 123.916 19.875C124.051 19.6042 124.166 19.3698 124.259 19.1719C124.311 19.0573 124.384 18.9688 124.478 18.9062C124.582 18.8438 124.692 18.8125 124.806 18.8125C124.983 18.8125 125.124 18.8802 125.228 19.0156C125.343 19.1406 125.4 19.276 125.4 19.4219C125.4 19.4948 125.384 19.5677 125.353 19.6406ZM129.116 17.5781C129.074 17.8594 129.022 18.125 128.959 18.375C128.897 18.6146 128.834 18.8281 128.772 19.0156C128.72 19.1927 128.673 19.3385 128.631 19.4531C128.59 19.5677 128.564 19.6302 128.553 19.6406C128.449 19.8802 128.267 20 128.006 20C127.86 20 127.725 19.9479 127.6 19.8438C127.475 19.7292 127.412 19.5885 127.412 19.4219C127.412 19.3594 127.423 19.3125 127.444 19.2812C127.465 19.25 127.496 19.1875 127.537 19.0938C127.579 19 127.631 18.8438 127.694 18.625C127.756 18.4062 127.834 18.0677 127.928 17.6094C127.751 17.6094 127.569 17.6042 127.381 17.5938C127.194 17.5833 127.022 17.5469 126.866 17.4844C126.699 17.4219 126.564 17.3229 126.459 17.1875C126.355 17.0521 126.303 16.8646 126.303 16.625C126.303 16.4479 126.355 16.2083 126.459 15.9062C126.553 15.6042 126.683 15.3073 126.85 15.0156C127.017 14.724 127.204 14.474 127.412 14.2656C127.621 14.0469 127.829 13.9375 128.037 13.9375C128.277 13.9375 128.47 14.026 128.616 14.2031C128.772 14.3802 128.892 14.599 128.975 14.8594C129.058 15.1094 129.116 15.375 129.147 15.6562C129.189 15.9375 129.209 16.1823 129.209 16.3906C129.386 16.3906 129.558 16.3906 129.725 16.3906C129.902 16.3802 130.069 16.375 130.225 16.375C130.819 16.375 131.272 16.5052 131.584 16.7656C131.897 17.026 132.053 17.4531 132.053 18.0469C132.053 18.2865 132.037 18.5365 132.006 18.7969C131.975 19.0573 131.939 19.3281 131.897 19.6094C131.855 19.8802 131.819 20.151 131.787 20.4219C131.756 20.6927 131.741 20.9583 131.741 21.2188C131.741 21.5938 131.793 21.9062 131.897 22.1562C132.001 22.3958 132.131 22.5885 132.287 22.7344C132.444 22.8802 132.61 22.9844 132.787 23.0469C132.965 23.099 133.126 23.125 133.272 23.125C133.72 23.125 134.142 22.9792 134.537 22.6875C134.933 22.3958 135.298 22.0469 135.631 21.6406C135.965 21.224 136.261 20.7865 136.522 20.3281C136.793 19.8698 137.017 19.4688 137.194 19.125C137.246 19.0312 137.319 18.9583 137.412 18.9062C137.506 18.8542 137.605 18.8281 137.709 18.8281C137.897 18.8281 138.043 18.8906 138.147 19.0156C138.251 19.1302 138.303 19.2604 138.303 19.4062C138.303 19.5104 138.282 19.6042 138.241 19.6875C138.001 20.1146 137.72 20.599 137.397 21.1406C137.084 21.6719 136.725 22.1719 136.319 22.6406C135.912 23.1094 135.454 23.5052 134.944 23.8281C134.444 24.151 133.892 24.3125 133.287 24.3125C132.912 24.3125 132.558 24.2396 132.225 24.0938C131.892 23.9583 131.6 23.7604 131.35 23.5C131.11 23.2292 130.918 22.901 130.772 22.5156C130.626 22.1198 130.553 21.6771 130.553 21.1875C130.553 20.6667 130.605 20.151 130.709 19.6406C130.814 19.1198 130.866 18.625 130.866 18.1562C130.866 17.9583 130.819 17.8125 130.725 17.7188C130.642 17.6146 130.449 17.5625 130.147 17.5625C130.001 17.5625 129.84 17.5625 129.662 17.5625C129.496 17.5625 129.314 17.5677 129.116 17.5781ZM128.069 16.4219C128.069 16.349 128.064 16.2552 128.053 16.1406C128.053 16.0156 128.043 15.8958 128.022 15.7812C128.011 15.6667 127.991 15.5677 127.959 15.4844C127.939 15.401 127.912 15.3594 127.881 15.3594C127.85 15.3594 127.808 15.401 127.756 15.4844C127.715 15.5573 127.668 15.651 127.616 15.7656C127.564 15.8698 127.517 15.9844 127.475 16.1094C127.433 16.2344 127.402 16.3385 127.381 16.4219H128.069Z" fill="black"/>
</svg>
