<svg width="216" height="40" viewBox="0 0 216 40" fill="none" xmlns="http://www.w3.org/2000/svg">
<path d="M44.8496 21.0322C46.2493 21.4229 47.4375 21.8704 48.4141 22.375C49.4069 22.8796 50.237 23.4085 50.9043 23.9619C51.5879 24.499 52.125 25.0524 52.5156 25.6221C52.9062 26.1917 53.2074 26.737 53.4189 27.2578C53.6305 27.7786 53.7607 28.2669 53.8096 28.7227C53.8747 29.1621 53.9072 29.5365 53.9072 29.8457C53.9072 30.985 53.6875 32.0023 53.248 32.8975C52.8249 33.7926 52.2471 34.582 51.5146 35.2656C50.7822 35.9492 49.9277 36.527 48.9512 36.999C47.9909 37.471 46.9818 37.8535 45.9238 38.1465C44.8659 38.4557 43.7835 38.6755 42.6768 38.8057C41.57 38.9521 40.5202 39.0254 39.5273 39.0254C37.916 39.0254 36.2477 38.8626 34.5225 38.5371C32.8135 38.2116 31.0801 37.6826 29.3223 36.9502C28.9316 36.7874 28.7363 36.5026 28.7363 36.0957C28.7363 35.819 28.834 35.5993 29.0293 35.4365C29.2246 35.2575 29.4362 35.168 29.6641 35.168C29.778 35.168 29.9001 35.1924 30.0303 35.2412C31.5439 35.876 33.0983 36.3561 34.6934 36.6816C36.2884 37.0072 37.8916 37.1699 39.5029 37.1699C41.7002 37.1699 43.5882 36.9583 45.167 36.5352C46.7458 36.112 48.0397 35.5586 49.0488 34.875C50.0742 34.1751 50.8311 33.3939 51.3193 32.5312C51.8076 31.6523 52.0518 30.7653 52.0518 29.8701C52.0518 28.8773 51.7751 27.9577 51.2217 27.1113C50.6846 26.265 49.9115 25.5081 48.9023 24.8408C47.9095 24.1735 46.7132 23.6038 45.3135 23.1318C43.9137 22.6598 42.3594 22.3099 40.6504 22.082C39.5273 22.2773 38.4368 22.4157 37.3789 22.4971C36.321 22.5785 35.3444 22.6191 34.4492 22.6191H33.8877C33.7738 22.6191 33.668 22.611 33.5703 22.5947C32.3984 25.4105 30.9987 27.8438 29.3711 29.8945C27.7598 31.9453 26.0345 33.6462 24.1953 34.9971C22.3724 36.3317 20.4925 37.3245 18.5557 37.9756C16.6351 38.6104 14.7878 38.9277 13.0137 38.9277C11.1745 38.9277 9.48177 38.6673 7.93555 38.1465C6.4056 37.6419 5.08724 36.9176 3.98047 35.9736C2.8737 35.0296 2.01107 33.8903 1.39258 32.5557C0.774089 31.2048 0.464844 29.6992 0.464844 28.0391C0.464844 26.3138 0.798503 24.5316 1.46582 22.6924C2.14941 20.8369 3.15853 18.957 4.49316 17.0527C5.7627 15.2624 7.17057 13.6592 8.7168 12.2432C10.263 10.8109 11.8825 9.55762 13.5752 8.4834C15.2842 7.40918 17.042 6.48958 18.8486 5.72461C20.6553 4.95964 22.4456 4.33301 24.2197 3.84473C26.0101 3.35645 27.7516 3.00651 29.4443 2.79492C31.1533 2.56706 32.7565 2.45312 34.2539 2.45312C35.4746 2.45312 36.6383 2.49382 37.7451 2.5752C38.8519 2.65658 39.9098 2.77865 40.9189 2.94141C41.5049 2.29036 41.9769 1.8265 42.335 1.5498C42.693 1.25684 42.8965 1.09408 42.9453 1.06152C43.1406 0.963867 43.3115 0.915039 43.458 0.915039C43.6859 0.915039 43.8893 0.980143 44.0684 1.11035C44.2474 1.24056 44.3369 1.42773 44.3369 1.67188C44.3369 1.9974 44.223 2.27409 43.9951 2.50195C43.7673 2.71354 43.458 3.00651 43.0674 3.38086C46.0459 4.11328 48.3245 5.22005 49.9033 6.70117C51.4821 8.16602 52.2715 9.98079 52.2715 12.1455C52.2715 13.3337 52.0762 14.3997 51.6855 15.3438C51.2949 16.2878 50.7578 17.1178 50.0742 17.834C49.4069 18.5501 48.6175 19.1768 47.7061 19.7139C46.8109 20.2347 45.8587 20.6742 44.8496 21.0322ZM40.6748 20.2266C41.391 20.0964 42.1234 19.9255 42.8721 19.7139C43.637 19.5023 44.3776 19.25 45.0938 18.957C45.8262 18.6478 46.5179 18.2897 47.1689 17.8828C47.82 17.4596 48.3815 16.9714 48.8535 16.418C49.3418 15.8483 49.7243 15.2135 50.001 14.5137C50.2939 13.8138 50.4404 13.0163 50.4404 12.1211C50.4404 10.2982 49.6836 8.79264 48.1699 7.60449C46.6562 6.41634 44.4834 5.53743 41.6514 4.96777C40.8376 5.97689 40.0726 7.0918 39.3564 8.3125C38.6403 9.5332 37.9811 10.8027 37.3789 12.1211C36.7767 13.4232 36.2314 14.7497 35.7432 16.1006C35.2712 17.4352 34.8805 18.7292 34.5713 19.9824C34.8968 19.9661 35.1979 19.958 35.4746 19.958C35.7513 19.958 35.9873 19.958 36.1826 19.958C36.8174 19.958 37.5091 19.9824 38.2578 20.0312C39.0065 20.0638 39.8122 20.1289 40.6748 20.2266ZM39.5762 4.62598C38.7461 4.51204 37.8916 4.43066 37.0127 4.38184C36.1338 4.33301 35.2142 4.30859 34.2539 4.30859C32.8216 4.30859 31.2998 4.41439 29.6885 4.62598C28.0771 4.83757 26.4251 5.17122 24.7324 5.62695C23.0397 6.08268 21.3307 6.67676 19.6055 7.40918C17.8965 8.12533 16.2282 8.99609 14.6006 10.0215C12.9893 11.0306 11.4512 12.2106 9.98633 13.5615C8.52148 14.9124 7.18685 16.4342 5.98242 18.127C4.76172 19.8522 3.84212 21.5531 3.22363 23.2295C2.60514 24.9059 2.2959 26.501 2.2959 28.0146C2.2959 29.4307 2.54818 30.7002 3.05273 31.8232C3.57357 32.9463 4.30599 33.8984 5.25 34.6797C6.19401 35.4447 7.3252 36.0387 8.64355 36.4619C9.96191 36.8688 11.4186 37.0723 13.0137 37.0723C14.6087 37.0723 16.2689 36.7874 17.9941 36.2178C19.7194 35.6318 21.404 34.7448 23.0479 33.5566C24.6917 32.3522 26.2542 30.8385 27.7354 29.0156C29.2165 27.1764 30.5104 24.9954 31.6172 22.4727C31.3242 22.4727 31.0231 22.3913 30.7139 22.2285C30.4046 22.0495 30.25 21.7728 30.25 21.3984C30.25 21.0078 30.4372 20.7311 30.8115 20.5684C31.1859 20.3893 31.7718 20.2428 32.5693 20.1289C33.0088 18.7943 33.4564 17.4596 33.9121 16.125C34.3678 14.7904 34.8724 13.472 35.4258 12.1699C35.9792 10.8678 36.5895 9.59017 37.2568 8.33691C37.9242 7.06738 38.6973 5.8304 39.5762 4.62598ZM67.2568 18.835C67.2568 19.4535 67.0371 19.9824 66.5977 20.4219C66.1745 20.8451 65.6536 21.0566 65.0352 21.0566C64.4167 21.0566 63.8877 20.8451 63.4482 20.4219C63.0251 19.9824 62.8135 19.4535 62.8135 18.835C62.8135 18.5257 62.8704 18.2409 62.9844 17.9805C63.0983 17.7038 63.2529 17.4678 63.4482 17.2725C63.6598 17.0609 63.8958 16.8981 64.1562 16.7842C64.4329 16.6702 64.7259 16.6133 65.0352 16.6133C65.3444 16.6133 65.6292 16.6702 65.8896 16.7842C66.1663 16.8981 66.4023 17.0609 66.5977 17.2725C66.8092 17.4678 66.972 17.7038 67.0859 17.9805C67.1999 18.2409 67.2568 18.5257 67.2568 18.835ZM63.3018 33.1416C63.3018 30.7979 63.4482 28.4622 63.7412 26.1348C63.7738 25.9069 63.8714 25.7116 64.0342 25.5488C64.2132 25.3698 64.4411 25.2803 64.7178 25.2803C64.9619 25.2803 65.1654 25.3779 65.3281 25.5732C65.4909 25.7523 65.5723 25.9639 65.5723 26.208C65.5723 26.3057 65.5479 26.5986 65.499 27.0869C65.4665 27.5752 65.4176 28.1611 65.3525 28.8447C65.3037 29.512 65.2549 30.2282 65.2061 30.9932C65.1735 31.7419 65.1572 32.4336 65.1572 33.0684C65.1572 33.931 65.2386 34.6309 65.4014 35.168C65.5804 35.6888 65.8001 36.0957 66.0605 36.3887C66.3372 36.6816 66.6221 36.877 66.915 36.9746C67.2243 37.0723 67.5173 37.1211 67.7939 37.1211C68.2497 37.1211 68.7217 36.9583 69.21 36.6328C69.6982 36.3073 70.1947 35.8516 70.6992 35.2656C71.2201 34.6797 71.7409 33.9798 72.2617 33.166C72.7826 32.3359 73.2952 31.4163 73.7998 30.4072C73.8812 30.2445 73.9951 30.1224 74.1416 30.041C74.2881 29.9434 74.4508 29.8945 74.6299 29.8945C74.8903 29.8945 75.1019 29.9922 75.2646 30.1875C75.4437 30.3828 75.5332 30.5944 75.5332 30.8223C75.5332 30.985 75.5007 31.1234 75.4355 31.2373C75.2402 31.6117 74.9961 32.0674 74.7031 32.6045C74.4102 33.1416 74.0765 33.695 73.7021 34.2646C73.3278 34.8343 72.9128 35.404 72.457 35.9736C72.0176 36.527 71.5456 37.0316 71.041 37.4873C70.5365 37.9268 70.0075 38.2848 69.4541 38.5615C68.9007 38.8382 68.3392 38.9766 67.7695 38.9766C67.0371 38.9766 66.3942 38.8219 65.8408 38.5127C65.2874 38.2035 64.8154 37.7884 64.4248 37.2676C64.0505 36.7467 63.7656 36.1364 63.5703 35.4365C63.3913 34.7204 63.3018 33.9554 63.3018 33.1416ZM65.8896 18.835C65.8896 18.6071 65.8001 18.4118 65.6211 18.249C65.4583 18.07 65.263 17.9805 65.0352 17.9805C64.8073 17.9805 64.612 18.07 64.4492 18.249C64.2865 18.4118 64.2051 18.6071 64.2051 18.835C64.2051 19.0628 64.2865 19.2581 64.4492 19.4209C64.612 19.5837 64.8073 19.665 65.0352 19.665C65.263 19.665 65.4583 19.5837 65.6211 19.4209C65.8001 19.2581 65.8896 19.0628 65.8896 18.835ZM81.7051 35.3145C82.0469 35.7865 82.4863 36.1689 83.0234 36.4619C83.5605 36.7386 84.2197 36.877 85.001 36.877C85.7985 36.877 86.5228 36.6898 87.1738 36.3154C87.8249 35.9248 88.4189 35.4202 88.9561 34.8018C89.4932 34.1833 89.9733 33.4915 90.3965 32.7266C90.8197 31.9616 91.2021 31.1966 91.5439 30.4316C91.6253 30.2526 91.7393 30.1224 91.8857 30.041C92.0322 29.9434 92.195 29.8945 92.374 29.8945C92.6507 29.8945 92.8704 29.9922 93.0332 30.1875C93.2122 30.3828 93.3018 30.5944 93.3018 30.8223C93.3018 30.9036 93.2936 30.9769 93.2773 31.042C93.2611 31.0908 93.2367 31.1478 93.2041 31.2129C92.0811 33.6868 90.8522 35.5505 89.5176 36.8037C88.1992 38.057 86.7018 38.6999 85.0254 38.7324C83.9512 38.7324 83.0234 38.5208 82.2422 38.0977C81.4609 37.6908 80.818 37.1618 80.3135 36.5107C79.8089 35.8434 79.4346 35.0947 79.1904 34.2646C78.9463 33.4346 78.8242 32.6045 78.8242 31.7744C78.8242 30.9443 78.9219 30.1794 79.1172 29.4795C79.3288 28.7796 79.6217 28.1693 79.9961 27.6484C80.3867 27.1276 80.8424 26.7207 81.3633 26.4277C81.9004 26.1348 82.4863 25.9883 83.1211 25.9883C83.4954 25.9883 83.8617 26.0697 84.2197 26.2324C84.5941 26.3789 84.9277 26.5986 85.2207 26.8916C85.5137 27.1683 85.7497 27.5101 85.9287 27.917C86.1077 28.3239 86.1973 28.7878 86.1973 29.3086C86.1973 29.9759 86.0833 30.6025 85.8555 31.1885C85.6276 31.7744 85.3102 32.3197 84.9033 32.8242C84.5127 33.3288 84.0407 33.7926 83.4873 34.2158C82.9339 34.639 82.3398 35.0052 81.7051 35.3145ZM80.9727 33.7275C81.4772 33.516 81.9329 33.2474 82.3398 32.9219C82.763 32.5964 83.1211 32.2383 83.4141 31.8477C83.707 31.457 83.9349 31.0501 84.0977 30.627C84.2604 30.1875 84.3418 29.748 84.3418 29.3086C84.3418 28.8203 84.2197 28.4541 83.9756 28.21C83.7314 27.9495 83.4466 27.8193 83.1211 27.8193C82.6816 27.8193 82.3073 27.9414 81.998 28.1855C81.6888 28.4297 81.4365 28.7471 81.2412 29.1377C81.0459 29.5283 80.8994 29.9678 80.8018 30.4561C80.7204 30.9281 80.6797 31.4001 80.6797 31.8721C80.6797 32.165 80.7041 32.4743 80.7529 32.7998C80.818 33.1253 80.8913 33.4346 80.9727 33.7275ZM101.988 35.8027C102.249 35.2656 102.55 34.6797 102.892 34.0449C103.233 33.3939 103.6 32.7428 103.99 32.0918C104.381 31.4245 104.788 30.7653 105.211 30.1143C105.65 29.4632 106.106 28.8447 106.578 28.2588C107.05 27.6891 107.522 27.2822 107.994 27.0381C108.482 26.7777 108.938 26.6475 109.361 26.6475C110.208 26.6475 110.834 26.9567 111.241 27.5752C111.648 28.1937 111.852 28.9587 111.852 29.8701C111.852 30.0817 111.835 30.3421 111.803 30.6514C111.786 30.9443 111.762 31.2617 111.729 31.6035C111.713 31.9453 111.689 32.2952 111.656 32.6533C111.64 32.9951 111.632 33.3206 111.632 33.6299C111.632 34.0205 111.648 34.3949 111.681 34.7529C111.729 35.111 111.811 35.4284 111.925 35.7051C112.039 35.9655 112.201 36.1771 112.413 36.3398C112.625 36.4863 112.901 36.5596 113.243 36.5596C113.862 36.5596 114.464 36.3236 115.05 35.8516C115.636 35.3633 116.173 34.7936 116.661 34.1426C117.166 33.4753 117.597 32.7998 117.955 32.1162C118.329 31.4326 118.606 30.8792 118.785 30.4561C118.867 30.277 118.98 30.1387 119.127 30.041C119.29 29.9434 119.461 29.8945 119.64 29.8945C119.916 29.8945 120.136 30.0003 120.299 30.2119C120.478 30.4072 120.567 30.6188 120.567 30.8467C120.567 30.9606 120.543 31.0745 120.494 31.1885C120.429 31.3187 120.299 31.5872 120.104 31.9941C119.908 32.401 119.648 32.873 119.322 33.4102C119.013 33.931 118.647 34.4925 118.224 35.0947C117.8 35.6807 117.328 36.2178 116.808 36.7061C116.303 37.1943 115.75 37.6012 115.147 37.9268C114.562 38.2523 113.943 38.415 113.292 38.415C112.56 38.415 111.965 38.2767 111.51 38C111.054 37.707 110.696 37.3327 110.436 36.877C110.175 36.4049 109.996 35.8923 109.898 35.3389C109.817 34.7692 109.776 34.1995 109.776 33.6299C109.776 33.3857 109.785 33.109 109.801 32.7998C109.833 32.4906 109.866 32.165 109.898 31.8232C109.947 31.4814 109.98 31.1396 109.996 30.7979C110.029 30.4561 110.045 30.1305 110.045 29.8213C110.045 29.3005 109.964 28.9505 109.801 28.7715C109.638 28.5762 109.492 28.4785 109.361 28.4785C109.101 28.4785 108.8 28.6331 108.458 28.9424C108.132 29.2354 107.783 29.626 107.408 30.1143C107.05 30.6025 106.676 31.1559 106.285 31.7744C105.911 32.3766 105.553 32.9788 105.211 33.5811C104.885 34.1833 104.576 34.7611 104.283 35.3145C104.007 35.8516 103.787 36.2992 103.624 36.6572C103.299 37.3408 102.973 37.7965 102.647 38.0244C102.322 38.2686 101.988 38.3906 101.646 38.3906C101.174 38.3906 100.792 38.2523 100.499 37.9756C100.222 37.6826 100.084 37.2757 100.084 36.7549C100.084 36.641 100.1 36.4212 100.133 36.0957C100.165 35.7539 100.206 35.3551 100.255 34.8994C100.304 34.4274 100.353 33.9229 100.401 33.3857C100.45 32.8486 100.499 32.3197 100.548 31.7988C100.597 31.2617 100.637 30.7653 100.67 30.3096C100.702 29.8538 100.719 29.4714 100.719 29.1621C100.719 28.7552 100.702 28.3646 100.67 27.9902C100.637 27.6159 100.572 27.388 100.475 27.3066C100.328 27.3555 100.068 27.6647 99.6934 28.2344C99.319 28.7878 98.8389 29.7725 98.2529 31.1885C98.1715 31.3675 98.0495 31.5059 97.8867 31.6035C97.724 31.7012 97.5531 31.75 97.374 31.75C97.0973 31.75 96.8776 31.6605 96.7148 31.4814C96.5521 31.2861 96.4707 31.0664 96.4707 30.8223C96.4707 30.7083 96.4951 30.5863 96.5439 30.4561C97.2764 28.7145 97.96 27.4368 98.5947 26.623C99.2458 25.793 99.8887 25.3779 100.523 25.3779C100.898 25.3779 101.215 25.4756 101.476 25.6709C101.736 25.8499 101.939 26.0941 102.086 26.4033C102.249 26.7126 102.363 27.0544 102.428 27.4287C102.509 27.8031 102.55 28.1855 102.55 28.5762C102.55 28.8691 102.525 29.3249 102.477 29.9434C102.444 30.5618 102.395 31.2292 102.33 31.9453C102.265 32.6452 102.2 33.3451 102.135 34.0449C102.086 34.7448 102.037 35.3307 101.988 35.8027ZM126.764 35.3145C127.105 35.7865 127.545 36.1689 128.082 36.4619C128.619 36.7386 129.278 36.877 130.06 36.877C130.857 36.877 131.581 36.6898 132.232 36.3154C132.883 35.9248 133.478 35.4202 134.015 34.8018C134.552 34.1833 135.032 33.4915 135.455 32.7266C135.878 31.9616 136.261 31.1966 136.603 30.4316C136.684 30.2526 136.798 30.1224 136.944 30.041C137.091 29.9434 137.254 29.8945 137.433 29.8945C137.709 29.8945 137.929 29.9922 138.092 30.1875C138.271 30.3828 138.36 30.5944 138.36 30.8223C138.36 30.9036 138.352 30.9769 138.336 31.042C138.32 31.0908 138.295 31.1478 138.263 31.2129C137.14 33.6868 135.911 35.5505 134.576 36.8037C133.258 38.057 131.76 38.6999 130.084 38.7324C129.01 38.7324 128.082 38.5208 127.301 38.0977C126.52 37.6908 125.877 37.1618 125.372 36.5107C124.868 35.8434 124.493 35.0947 124.249 34.2646C124.005 33.4346 123.883 32.6045 123.883 31.7744C123.883 30.9443 123.98 30.1794 124.176 29.4795C124.387 28.7796 124.68 28.1693 125.055 27.6484C125.445 27.1276 125.901 26.7207 126.422 26.4277C126.959 26.1348 127.545 25.9883 128.18 25.9883C128.554 25.9883 128.92 26.0697 129.278 26.2324C129.653 26.3789 129.986 26.5986 130.279 26.8916C130.572 27.1683 130.808 27.5101 130.987 27.917C131.166 28.3239 131.256 28.7878 131.256 29.3086C131.256 29.9759 131.142 30.6025 130.914 31.1885C130.686 31.7744 130.369 32.3197 129.962 32.8242C129.571 33.3288 129.099 33.7926 128.546 34.2158C127.993 34.639 127.398 35.0052 126.764 35.3145ZM126.031 33.7275C126.536 33.516 126.992 33.2474 127.398 32.9219C127.822 32.5964 128.18 32.2383 128.473 31.8477C128.766 31.457 128.993 31.0501 129.156 30.627C129.319 30.1875 129.4 29.748 129.4 29.3086C129.4 28.8203 129.278 28.4541 129.034 28.21C128.79 27.9495 128.505 27.8193 128.18 27.8193C127.74 27.8193 127.366 27.9414 127.057 28.1855C126.747 28.4297 126.495 28.7471 126.3 29.1377C126.104 29.5283 125.958 29.9678 125.86 30.4561C125.779 30.9281 125.738 31.4001 125.738 31.8721C125.738 32.165 125.763 32.4743 125.812 32.7998C125.877 33.1253 125.95 33.4346 126.031 33.7275ZM144.337 28.9668C144.239 29.2272 144.117 29.5202 143.971 29.8457C143.84 30.1712 143.686 30.513 143.507 30.8711C143.36 31.1478 143.206 31.3675 143.043 31.5303C142.896 31.6768 142.701 31.75 142.457 31.75C142.18 31.75 141.961 31.6686 141.798 31.5059C141.635 31.3268 141.554 31.1234 141.554 30.8955C141.554 30.8141 141.562 30.749 141.578 30.7002C141.594 30.6351 141.635 30.5374 141.7 30.4072C142.123 29.5934 142.433 28.8854 142.628 28.2832C142.84 27.6647 143.01 27.0218 143.141 26.3545C143.027 25.9801 142.945 25.6628 142.896 25.4023C142.848 25.1419 142.823 24.8734 142.823 24.5967C142.823 24.0596 142.937 23.6283 143.165 23.3027C143.393 22.9609 143.71 22.79 144.117 22.79C144.492 22.79 144.785 22.9528 144.996 23.2783C145.224 23.6038 145.338 24.0026 145.338 24.4746C145.338 24.735 145.313 24.9954 145.265 25.2559C145.216 25.5163 145.151 25.8418 145.069 26.2324C145.444 27.1602 145.818 27.9821 146.192 28.6982C146.567 29.4144 146.9 30.0736 147.193 30.6758C147.486 31.2617 147.722 31.8151 147.901 32.3359C148.097 32.8568 148.194 33.3776 148.194 33.8984C148.194 34.582 148.056 35.2331 147.779 35.8516C147.503 36.4701 147.047 36.9909 146.412 37.4141C146.493 37.4303 146.575 37.4385 146.656 37.4385C146.738 37.4385 146.819 37.4385 146.9 37.4385C147.828 37.4385 148.683 37.2269 149.464 36.8037C150.245 36.3805 150.945 35.8353 151.563 35.168C152.198 34.4844 152.76 33.7357 153.248 32.9219C153.736 32.0918 154.16 31.2699 154.518 30.4561C154.68 30.0817 154.908 29.8945 155.201 29.8945C155.478 29.8945 155.689 29.9922 155.836 30.1875C155.999 30.3828 156.08 30.5944 156.08 30.8223C156.08 30.9525 156.056 31.0745 156.007 31.1885C155.828 31.6279 155.592 32.1325 155.299 32.7021C155.022 33.2555 154.68 33.8333 154.273 34.4355C153.883 35.0215 153.427 35.5993 152.906 36.1689C152.385 36.7386 151.799 37.2513 151.148 37.707C150.514 38.1465 149.814 38.4964 149.049 38.7568C148.284 39.0335 147.446 39.1719 146.534 39.1719C145.444 39.1719 144.426 38.9766 143.482 38.5859C142.555 38.2116 141.798 37.585 141.212 36.7061C141.114 36.5596 141.065 36.4049 141.065 36.2422C141.065 35.998 141.155 35.7865 141.334 35.6074C141.529 35.4121 141.749 35.3145 141.993 35.3145C142.254 35.3145 142.473 35.404 142.652 35.583C142.669 35.6156 142.726 35.6725 142.823 35.7539C142.921 35.819 143.035 35.9004 143.165 35.998C143.312 36.0794 143.474 36.1527 143.653 36.2178C143.849 36.2829 144.044 36.3154 144.239 36.3154C144.63 36.3154 144.955 36.234 145.216 36.0713C145.493 35.9085 145.712 35.7132 145.875 35.4854C146.038 35.2412 146.152 34.9889 146.217 34.7285C146.298 34.4518 146.339 34.2158 146.339 34.0205C146.339 33.6136 146.274 33.2067 146.144 32.7998C146.013 32.3929 145.842 31.986 145.631 31.5791C145.436 31.1722 145.216 30.7572 144.972 30.334C144.744 29.8945 144.532 29.4388 144.337 28.9668ZM179.098 13.5615C179.098 13.8219 179.008 14.0335 178.829 14.1963C178.65 14.3428 178.43 14.416 178.17 14.416H165.792V14.6846C165.792 15.6774 165.719 16.7354 165.572 17.8584C165.426 18.9814 165.222 20.1045 164.962 21.2275C164.718 22.3343 164.433 23.4167 164.107 24.4746C163.798 25.5326 163.473 26.5091 163.131 27.4043C162.805 28.2995 162.48 29.0807 162.154 29.748C161.829 30.3991 161.536 30.8874 161.275 31.2129C161.487 31.9616 161.739 32.6615 162.032 33.3125C162.325 33.9473 162.651 34.5088 163.009 34.9971C163.383 35.4691 163.782 35.8434 164.205 36.1201C164.628 36.3968 165.084 36.5352 165.572 36.5352C166.142 36.5352 166.703 36.2992 167.257 35.8271C167.826 35.3389 168.347 34.7692 168.819 34.1182C169.308 33.4508 169.731 32.7835 170.089 32.1162C170.463 31.4326 170.732 30.8874 170.895 30.4805C171.057 30.0898 171.342 29.8945 171.749 29.8945C172.026 29.8945 172.245 29.9922 172.408 30.1875C172.587 30.3828 172.677 30.5944 172.677 30.8223C172.677 30.9362 172.652 31.0501 172.604 31.1641C172.555 31.278 172.433 31.5384 172.237 31.9453C172.058 32.3522 171.814 32.8242 171.505 33.3613C171.212 33.8984 170.862 34.4681 170.455 35.0703C170.064 35.6562 169.617 36.1934 169.112 36.6816C168.624 37.1699 168.095 37.5768 167.525 37.9023C166.956 38.2279 166.354 38.3906 165.719 38.3906C164.596 38.3906 163.587 38.0244 162.691 37.292C161.796 36.5596 161.031 35.5342 160.396 34.2158C159.778 32.8975 159.306 31.335 158.98 29.5283C158.655 27.7217 158.492 25.7441 158.492 23.5957C158.492 23.0586 158.5 22.432 158.517 21.7158C158.533 20.9834 158.565 20.2184 158.614 19.4209C158.663 18.6071 158.736 17.777 158.834 16.9307C158.932 16.068 159.062 15.2298 159.225 14.416H150.46C150.2 14.416 149.98 14.3428 149.801 14.1963C149.622 14.0335 149.532 13.8219 149.532 13.5615C149.532 13.3011 149.622 13.0977 149.801 12.9512C149.98 12.7884 150.2 12.707 150.46 12.707H159.64C159.802 12.1211 159.99 11.584 160.201 11.0957C160.429 10.6074 160.681 10.1842 160.958 9.82617C161.251 9.4681 161.568 9.19141 161.91 8.99609C162.268 8.78451 162.659 8.67871 163.082 8.67871C163.489 8.67871 163.839 8.78451 164.132 8.99609C164.441 9.19141 164.701 9.4681 164.913 9.82617C165.125 10.1842 165.287 10.6074 165.401 11.0957C165.532 11.584 165.629 12.1211 165.694 12.707H178.17C178.43 12.707 178.65 12.7884 178.829 12.9512C179.008 13.0977 179.098 13.3011 179.098 13.5615ZM160.714 28.7715C161.202 27.6973 161.642 26.5417 162.032 25.3047C162.439 24.0514 162.781 22.79 163.058 21.5205C163.351 20.251 163.57 19.0059 163.717 17.7852C163.88 16.5645 163.961 15.4414 163.961 14.416H161.08C160.852 15.4251 160.665 16.6784 160.519 18.1758C160.388 19.6569 160.323 21.4635 160.323 23.5957C160.323 24.7839 160.356 25.7848 160.421 26.5986C160.486 27.3962 160.584 28.1204 160.714 28.7715ZM162.984 10.5098C162.838 10.5098 162.626 10.6725 162.35 10.998C162.073 11.3073 161.796 11.877 161.52 12.707H163.863C163.782 12.0234 163.66 11.4863 163.497 11.0957C163.351 10.7051 163.18 10.5098 162.984 10.5098ZM161.104 30.5293V30.5537V30.5293ZM194.864 31.1885C194.799 31.3187 194.661 31.5954 194.449 32.0186C194.254 32.4255 193.993 32.8975 193.668 33.4346C193.359 33.9717 192.993 34.5332 192.569 35.1191C192.146 35.7051 191.674 36.2422 191.153 36.7305C190.632 37.2188 190.071 37.6257 189.469 37.9512C188.867 38.2604 188.232 38.415 187.564 38.415C186.62 38.415 185.823 38.1139 185.172 37.5117C184.537 36.9095 184.073 36.1527 183.78 35.2412C183.227 36.1689 182.568 36.9095 181.803 37.4629C181.038 38 180.273 38.2686 179.508 38.2686C178.906 38.2686 178.36 38.1628 177.872 37.9512C177.384 37.7233 176.969 37.4141 176.627 37.0234C176.285 36.6165 176.017 36.1445 175.821 35.6074C175.642 35.0703 175.553 34.4844 175.553 33.8496C175.553 32.5801 175.764 31.4652 176.188 30.5049C176.627 29.5283 177.18 28.7145 177.848 28.0635C178.515 27.4124 179.247 26.9242 180.045 26.5986C180.859 26.2731 181.64 26.1104 182.389 26.1104C182.893 26.1104 183.357 26.1836 183.78 26.3301C184.203 26.4603 184.562 26.6068 184.854 26.7695C185.164 26.9323 185.4 27.0869 185.562 27.2334C185.725 27.3636 185.815 27.4368 185.831 27.4531C186.01 27.6647 186.1 27.8844 186.1 28.1123C186.1 28.3564 186.01 28.5762 185.831 28.7715C185.652 28.9505 185.44 29.04 185.196 29.04C184.936 29.04 184.716 28.9505 184.537 28.7715C184.505 28.7389 184.431 28.682 184.317 28.6006C184.203 28.5029 184.049 28.4053 183.854 28.3076C183.658 28.21 183.422 28.1286 183.146 28.0635C182.885 27.9821 182.584 27.9414 182.242 27.9414C181.738 27.9414 181.201 28.0553 180.631 28.2832C180.061 28.5111 179.54 28.8691 179.068 29.3574C178.596 29.8294 178.198 30.4316 177.872 31.1641C177.563 31.8802 177.408 32.7347 177.408 33.7275C177.408 34.0368 177.441 34.3542 177.506 34.6797C177.571 34.9889 177.685 35.2738 177.848 35.5342C178.01 35.7946 178.23 36.0062 178.507 36.1689C178.784 36.3317 179.125 36.4131 179.532 36.4131C179.825 36.4131 180.159 36.3154 180.533 36.1201C180.924 35.9248 181.29 35.6237 181.632 35.2168C181.99 34.8099 182.307 34.2972 182.584 33.6787C182.877 33.0602 183.08 32.3278 183.194 31.4814C183.227 31.2536 183.333 31.0664 183.512 30.9199C183.691 30.7572 183.902 30.6758 184.146 30.6758C184.374 30.6758 184.57 30.7653 184.732 30.9443C184.911 31.1234 185.009 31.3268 185.025 31.5547C185.042 31.8639 185.074 32.3034 185.123 32.873C185.172 33.4264 185.278 33.9798 185.44 34.5332C185.619 35.0866 185.88 35.5667 186.222 35.9736C186.563 36.3805 187.035 36.584 187.638 36.584C188.028 36.584 188.411 36.4782 188.785 36.2666C189.176 36.055 189.55 35.7783 189.908 35.4365C190.283 35.0785 190.632 34.6797 190.958 34.2402C191.3 33.7845 191.609 33.3288 191.886 32.873C192.162 32.4173 192.407 31.9779 192.618 31.5547C192.83 31.1315 193.009 30.7653 193.155 30.4561C193.237 30.277 193.351 30.1387 193.497 30.041C193.66 29.9434 193.831 29.8945 194.01 29.8945C194.286 29.8945 194.506 30.0003 194.669 30.2119C194.848 30.4072 194.938 30.6188 194.938 30.8467C194.938 30.9606 194.913 31.0745 194.864 31.1885ZM200.743 27.9658C200.678 28.4053 200.597 28.8203 200.499 29.2109C200.401 29.5853 200.304 29.9189 200.206 30.2119C200.125 30.4886 200.051 30.7165 199.986 30.8955C199.921 31.0745 199.881 31.1722 199.864 31.1885C199.701 31.5628 199.417 31.75 199.01 31.75C198.782 31.75 198.57 31.6686 198.375 31.5059C198.18 31.3268 198.082 31.1071 198.082 30.8467C198.082 30.749 198.098 30.6758 198.131 30.627C198.163 30.5781 198.212 30.4805 198.277 30.334C198.342 30.1875 198.424 29.9434 198.521 29.6016C198.619 29.2598 198.741 28.7308 198.888 28.0146C198.611 28.0146 198.326 28.0065 198.033 27.9902C197.74 27.974 197.472 27.917 197.228 27.8193C196.967 27.7217 196.756 27.5671 196.593 27.3555C196.43 27.1439 196.349 26.8509 196.349 26.4766C196.349 26.1999 196.43 25.8255 196.593 25.3535C196.739 24.8815 196.943 24.4176 197.203 23.9619C197.464 23.5062 197.757 23.1156 198.082 22.79C198.408 22.4482 198.733 22.2773 199.059 22.2773C199.433 22.2773 199.734 22.4157 199.962 22.6924C200.206 22.9691 200.393 23.3109 200.523 23.7178C200.654 24.1084 200.743 24.5234 200.792 24.9629C200.857 25.4023 200.89 25.7848 200.89 26.1104C201.166 26.1104 201.435 26.1104 201.695 26.1104C201.972 26.0941 202.232 26.0859 202.477 26.0859C203.404 26.0859 204.112 26.2894 204.601 26.6963C205.089 27.1032 205.333 27.7705 205.333 28.6982C205.333 29.0726 205.309 29.4632 205.26 29.8701C205.211 30.277 205.154 30.7002 205.089 31.1396C205.024 31.5628 204.967 31.986 204.918 32.4092C204.869 32.8324 204.845 33.2474 204.845 33.6543C204.845 34.2402 204.926 34.7285 205.089 35.1191C205.252 35.4935 205.455 35.7946 205.699 36.0225C205.943 36.2503 206.204 36.4131 206.48 36.5107C206.757 36.5921 207.009 36.6328 207.237 36.6328C207.937 36.6328 208.596 36.4049 209.215 35.9492C209.833 35.4935 210.403 34.9482 210.924 34.3135C211.445 33.6624 211.909 32.9788 212.315 32.2627C212.739 31.5465 213.089 30.9199 213.365 30.3828C213.447 30.2363 213.561 30.1224 213.707 30.041C213.854 29.9596 214.008 29.9189 214.171 29.9189C214.464 29.9189 214.692 30.0166 214.854 30.2119C215.017 30.391 215.099 30.5944 215.099 30.8223C215.099 30.985 215.066 31.1315 215.001 31.2617C214.627 31.929 214.187 32.6859 213.683 33.5322C213.194 34.3623 212.633 35.1436 211.998 35.876C211.363 36.6084 210.647 37.2269 209.85 37.7314C209.068 38.236 208.206 38.4883 207.262 38.4883C206.676 38.4883 206.122 38.3743 205.602 38.1465C205.081 37.9349 204.625 37.6257 204.234 37.2188C203.86 36.7956 203.559 36.2829 203.331 35.6807C203.103 35.0622 202.989 34.3704 202.989 33.6055C202.989 32.7917 203.071 31.986 203.233 31.1885C203.396 30.3747 203.478 29.6016 203.478 28.8691C203.478 28.5599 203.404 28.332 203.258 28.1855C203.128 28.0228 202.826 27.9414 202.354 27.9414C202.127 27.9414 201.874 27.9414 201.598 27.9414C201.337 27.9414 201.052 27.9495 200.743 27.9658ZM199.107 26.1592C199.107 26.0452 199.099 25.8988 199.083 25.7197C199.083 25.5244 199.067 25.3372 199.034 25.1582C199.018 24.9792 198.985 24.8245 198.937 24.6943C198.904 24.5641 198.863 24.499 198.814 24.499C198.766 24.499 198.701 24.5641 198.619 24.6943C198.554 24.8083 198.481 24.9548 198.399 25.1338C198.318 25.2965 198.245 25.4756 198.18 25.6709C198.115 25.8662 198.066 26.029 198.033 26.1592H199.107Z" fill="black"/>
</svg>
