<svg width="100" height="100" viewBox="0 0 100 100" fill="none" xmlns="http://www.w3.org/2000/svg">
<circle cx="50" cy="50" r="50" fill="#954F25"/>
<path d="M32.2917 36.2917C32.2917 34.8916 32.2917 34.1915 32.5642 33.6567C32.8039 33.1863 33.1863 32.8039 33.6567 32.5642C34.1915 32.2917 34.8916 32.2917 36.2917 32.2917H63.7084C65.1085 32.2917 65.8086 32.2917 66.3433 32.5642C66.8137 32.8039 67.1962 33.1863 67.4359 33.6567C67.7084 34.1915 67.7084 34.8916 67.7084 36.2917V63.7084C67.7084 65.1085 67.7084 65.8086 67.4359 66.3433C67.1962 66.8137 66.8137 67.1962 66.3433 67.4359C65.8086 67.7084 65.1085 67.7084 63.7084 67.7084H36.2917C34.8916 67.7084 34.1915 67.7084 33.6567 67.4359C33.1863 67.1962 32.8039 66.8137 32.5642 66.3433C32.2917 65.8086 32.2917 65.1085 32.2917 63.7084V36.2917Z" stroke="white" stroke-width="3"/>
<circle cx="42.7083" cy="48.9583" r="3.70833" stroke="white" stroke-width="3"/>
<path d="M46.875 48.9583H57.2917M61.4583 53.125V49.1083C61.4583 49.0255 61.3912 48.9583 61.3083 48.9583H57.2917M57.2917 48.9583V53.125" stroke="white" stroke-width="3" stroke-linecap="round"/>
</svg>
